<?xml version="1.0" encoding="UTF-8"?>
<svg width="400px" height="146px" viewBox="0 0 400 146" version="1.1" xmlns="http://www.w3.org/2000/svg" xmlns:xlink="http://www.w3.org/1999/xlink">
    <!-- Generator: Sketch 47.1 (45422) - http://www.bohemiancoding.com/sketch -->
    <title>amex</title>
    <desc>Created with Sketch.</desc>
    <defs></defs>
    <g id="Page-1" stroke="none" stroke-width="1" fill="none" fill-rule="evenodd">
        <path d="M0.00159999573,65.3368924 L19.2143488,65.3368924 L23.5466039,54.9315868 L33.2452447,54.9315868 L37.5652332,65.3368924 L75.367799,65.3368924 L75.367799,57.382247 L78.7427234,65.371559 L98.3672044,65.371559 L101.740529,57.263314 L101.740529,65.3368924 L195.686945,65.3368924 L195.644278,48.2564046 L197.46134,48.2564046 C198.73387,48.2990712 199.105602,48.4164042 199.105602,50.5091986 L199.105602,65.3358258 L247.695339,65.3358258 L247.695339,61.3598364 C251.615329,63.4504975 257.711313,65.3352924 265.732625,65.3352924 L286.17417,65.3352924 L290.548559,54.9299869 L300.247199,54.9299869 L304.524521,65.3352924 L343.916416,65.3352924 L343.916416,55.4515855 L349.8828,65.3352924 L381.449116,65.3352924 L381.449116,0 L350.208666,0 L350.208666,7.71624609 L345.834278,0 L313.778363,0 L313.778363,7.71624609 L309.761307,0 L266.461156,0 C259.213175,0 252.841992,1.00799731 247.695339,3.81492316 L247.695339,0.00159999573 L217.815419,0.00159999573 L217.815419,3.81652316 C214.540761,0.923197538 210.07784,0.00213332764 205.11572,0.00213332764 L95.9506775,0.00213332764 L88.625897,16.876755 L81.1037837,0.00213332764 L46.7198754,0.00213332764 L46.7198754,7.71944608 L42.9422855,0.00213332764 L13.618097,0.00213332764 L0,31.0649838 L0,65.3368924 L0.00159999573,65.3368924 Z M121.279143,55.9129176 L109.750641,55.9129176 L109.707974,19.2228821 L93.4024176,55.9134509 L83.5304439,55.9134509 L67.1827542,19.1914155 L67.1827542,55.9139842 L44.3113485,55.9139842 L39.99136,45.4649454 L16.5780891,45.4649454 L12.2133008,55.9129176 L0,55.9129176 L20.1364796,9.06717582 L36.8436351,9.06717582 L55.9689174,53.4211909 L55.9689174,9.06770915 L74.3208685,9.06770915 L89.0376292,40.8473577 L102.555993,9.06770915 L121.278077,9.06770915 L121.278077,55.9139842 L121.279677,55.9139842 L121.279143,55.9129176 Z M36.1465703,35.7407047 L28.4505908,17.0650212 L20.7972779,35.7407047 L36.1465703,35.7407047 Z M167.155288,55.9113176 L129.590588,55.9113176 L129.590588,9.06557583 L167.154754,9.06557583 L167.154754,18.8202165 L140.834824,18.8202165 L140.834824,27.264994 L166.523289,27.264994 L166.523289,36.8681684 L140.836958,36.8681684 L140.836958,46.2238767 L167.156888,46.2238767 L167.156888,55.9123842 L167.155288,55.9113176 Z M220.091146,21.6820755 C220.091146,29.1513889 215.085293,33.0100453 212.167968,34.1689755 C214.627694,35.1012397 216.729022,36.7492353 217.729553,38.1140317 C219.317282,40.4446921 219.590881,42.5246866 219.590881,46.7092088 L219.590881,55.9113176 L208.250111,55.9113176 L208.207445,50.0036 C208.207445,47.1849408 208.478377,43.131085 206.432516,40.8772243 C204.789854,39.2292287 202.284794,38.8718963 198.236271,38.8718963 L186.164837,38.8718963 L186.164837,55.9118509 L174.9222,55.9118509 L174.9222,9.06504249 L200.786665,9.06504249 C206.533316,9.06504249 210.767438,9.21597542 214.402628,11.3087698 C217.959952,13.4015643 220.09328,16.4564894 220.09328,21.6820755 L220.091146,21.6820755 Z M205.876784,28.6383236 C204.331722,29.5727211 202.504527,29.6036544 200.314132,29.6036544 L186.655502,29.6036544 L186.655502,19.1983488 L200.501865,19.1983488 C202.461327,19.1983488 204.506121,19.2858152 205.834118,20.0431466 C207.292781,20.7258114 208.195178,22.1775409 208.195178,24.1839355 C208.195178,26.23193 207.336514,27.8799257 205.878384,28.637257 L205.876784,28.6383236 Z M238.125765,55.9118509 L226.651662,55.9118509 L226.651662,9.06557583 L238.125232,9.06557583 L238.125232,55.9118509 L238.125765,55.9118509 Z M371.320076,55.9118509 L355.384119,55.9118509 L334.070042,20.750878 L334.070042,55.9118509 L311.16877,55.9118509 L306.793315,45.4628121 L283.433378,45.4628121 L279.188055,55.9123842 L266.030757,55.9123842 C260.564105,55.9123842 253.64359,54.7086541 249.724667,50.7310647 C245.772678,46.7524087 243.71615,41.3657564 243.71615,32.8463124 C243.71615,25.8985976 244.944947,19.5471479 249.778001,14.5279613 C253.413191,10.7893046 259.105976,9.06504249 266.855288,9.06504249 L277.741659,9.06504249 L277.741659,19.1023491 L267.083554,19.1023491 C262.980099,19.1023491 260.662238,19.7103474 258.430778,21.8778083 C256.513983,23.8511364 255.198786,27.5801931 255.198786,32.4900467 C255.198786,37.5087 256.200383,41.1278903 258.290511,43.4916174 C260.021707,45.3454791 263.167832,45.9076109 266.127824,45.9076109 L271.178477,45.9076109 L287.026435,9.06717582 L303.875456,9.06717582 L322.912739,53.376391 L322.912739,9.06717582 L340.034293,9.06717582 L359.801174,41.6932222 L359.801174,9.06770915 L371.319543,9.06770915 L371.319543,55.9123842 L371.320076,55.9118509 Z M302.968259,35.741238 L295.186946,17.0650212 L287.4483,35.7407047 L302.968259,35.7407047 L302.968259,35.741238 Z M399.976,130.713785 C397.245341,134.691374 391.922688,136.708435 384.717374,136.708435 L363.000099,136.708435 L363.000099,126.660462 L384.628308,126.660462 C386.773369,126.660462 388.274698,126.378863 389.178696,125.499932 C389.962693,124.776201 390.508292,123.723937 390.508292,122.44394 C390.508292,121.07861 389.96216,119.995947 389.134962,119.345282 C388.318964,118.630617 387.131234,118.305285 385.172306,118.305285 C374.614468,117.947952 361.442236,118.630617 361.442236,103.802923 C361.442236,97.0066746 365.775558,89.8525604 377.575526,89.8525604 L399.9744,89.8525604 L399.9744,80.5299186 L379.163789,80.5299186 C372.883272,80.5299186 368.321151,82.0285813 365.090226,84.356575 L365.090226,80.5299186 L334.308442,80.5299186 C329.385788,80.5299186 323.608204,81.7448487 320.875411,84.3560417 L320.875411,80.5293853 L265.907558,80.5293853 L265.907558,84.3549751 C261.532636,81.2125834 254.151322,80.5283186 250.744931,80.5283186 L214.486895,80.5283186 L214.486895,84.3544417 C211.025571,81.0168506 203.329591,80.5277853 198.638404,80.5277853 L158.059845,80.5277853 L148.774537,90.5341586 L140.077493,80.5267186 L79.4611214,80.5267186 L79.4611214,145.907878 L138.936696,145.907878 L148.504671,135.743638 L157.51798,145.908944 L194.179216,145.940944 L194.179216,130.560719 L197.782406,130.560719 C202.646393,130.635385 208.383978,130.440185 213.445297,128.262058 L213.445297,145.907344 L243.685217,145.907344 L243.685217,128.86579 L245.143346,128.86579 C247.004675,128.86579 247.188141,128.942056 247.188141,130.794318 L247.188141,145.905211 L339.044429,145.905211 C344.876947,145.905211 350.972931,144.419348 354.348922,141.721755 L354.348922,145.906278 L383.485911,145.906278 C389.549895,145.906278 395.469879,145.05988 399.975467,142.892952 L399.975467,130.711651 L399.976,130.713785 Z M217.841019,105.565052 C217.841019,118.58155 208.088512,121.26901 198.259205,121.26901 L184.228842,121.26901 L184.228842,136.986301 L162.3729,136.986301 L148.526004,121.473809 L134.136709,136.985768 L89.5944277,136.985768 L89.5944277,90.1272263 L134.820974,90.1272263 L148.655604,105.487185 L162.959565,90.1272263 L198.890136,90.1272263 C207.814379,90.1272263 217.841019,92.5880198 217.841019,105.565052 L217.841019,105.565052 Z M128.441257,127.129794 L100.793331,127.129794 L100.793331,117.807153 L125.481265,117.807153 L125.481265,108.246111 L100.793331,108.246111 L100.793331,99.7272007 L128.985256,99.7272007 L141.28549,113.382631 L128.442857,127.130861 L128.441257,127.129794 Z M172.988339,132.495113 L155.724385,113.408231 L172.988339,94.9266802 L172.988339,132.49458 L172.988339,132.495113 Z M198.520537,111.659969 L183.988843,111.659969 L183.988843,99.7288007 L198.651204,99.7288007 C202.710926,99.7288007 205.529052,101.376796 205.529052,105.474385 C205.529052,109.527708 202.841059,111.661036 198.521071,111.661036 L198.520537,111.659969 Z M274.649934,90.1293597 L312.180501,90.1293597 L312.180501,99.8200005 L285.848838,99.8200005 L285.848838,108.338911 L311.537836,108.338911 L311.537836,117.899419 L285.848838,117.899419 L285.848838,127.222061 L312.180501,127.264727 L312.180501,136.987368 L274.649934,136.987368 L274.649934,90.1288263 L274.649934,90.1293597 Z M260.221706,115.211959 C262.724633,116.131424 264.771027,117.780486 265.731025,119.145282 C267.31822,121.433276 267.548087,123.568204 267.59342,127.698326 L267.59342,136.987368 L256.302783,136.987368 L256.302783,131.12445 C256.302783,128.305258 256.574782,124.131402 254.485188,121.952208 C252.842526,120.273279 250.337466,119.872214 246.23561,119.872214 L234.218042,119.872214 L234.218042,136.986835 L222.919406,136.986835 L222.919406,90.128293 L248.880936,90.128293 C254.573721,90.128293 258.719843,90.378959 262.411567,92.3394871 C265.959824,94.4749481 268.191818,97.3997403 268.191818,102.744793 C268.190751,110.224239 263.181698,114.040763 260.221706,115.210359 L260.221706,115.211959 Z M253.86599,109.286109 C252.361994,110.175173 250.500665,110.251439 248.312938,110.251439 L234.652708,110.251439 L234.652708,99.7272007 L248.499071,99.7272007 C250.501199,99.7272007 252.504393,99.7698673 253.865456,100.573598 C255.321452,101.33253 256.192917,102.783726 256.192917,104.788521 C256.192917,106.793849 255.321452,108.408778 253.86439,109.286109 L253.86599,109.286109 Z M355.377719,112.271167 C357.56758,114.527161 358.74091,117.37622 358.74091,122.198607 C358.74091,132.280181 352.417727,136.985235 341.076957,136.985235 L319.175682,136.985235 L319.175682,126.937262 L340.988957,126.937262 C343.122285,126.937262 344.634814,126.656196 345.582545,125.777265 C346.355876,125.051933 346.910542,123.999136 346.910542,122.721273 C346.910542,121.355943 346.310543,120.271679 345.538279,119.622614 C344.678548,118.906883 343.492417,118.582617 341.534023,118.582617 C331.018317,118.224218 317.848752,118.906883 317.848752,104.079189 C317.848752,97.2824072 322.136741,90.128293 333.92551,90.128293 L356.469449,90.128293 L356.469449,100.1016 L335.839104,100.1016 C333.79431,100.1016 332.464713,100.177866 331.33405,100.947997 C330.102053,101.706395 329.645521,102.832792 329.645521,104.318655 C329.645521,106.08665 330.690851,107.289314 332.105248,107.809313 C333.290845,108.219978 334.564974,108.340511 336.480703,108.340511 L342.53402,108.503177 C348.638537,108.65251 352.828926,109.703174 355.375586,112.272767 L355.377719,112.271167 Z M399.998933,99.7272007 L379.504588,99.7272007 C377.458727,99.7272007 376.099264,99.8034672 374.9542,100.573598 C373.769137,101.33253 373.311538,102.458393 373.311538,103.945323 C373.311538,105.712785 374.314202,106.915982 375.770198,107.435447 C376.957395,107.846112 378.231525,107.966645 380.104586,107.966645 L386.19897,108.128778 C392.348287,108.280245 396.453876,109.333042 398.956269,111.900502 C399.412802,112.257834 399.686934,112.6589 400,113.060499 L400,99.7272007 L399.998933,99.7272007 Z" id="amex" fill="#FFFFFF" fill-rule="nonzero"></path>
    </g>
</svg>