<?xml version="1.0" encoding="UTF-8"?>
<svg width="397px" height="243px" viewBox="0 0 397 243" version="1.1" xmlns="http://www.w3.org/2000/svg" xmlns:xlink="http://www.w3.org/1999/xlink">
    <!-- Generator: Sketch 47.1 (45422) - http://www.bohemiancoding.com/sketch -->
    <title>mastercard</title>
    <desc>Created with Sketch.</desc>
    <defs></defs>
    <g id="Page-1" stroke="none" stroke-width="1" fill="none" fill-rule="evenodd">
        <g id="mastercard" fill-rule="nonzero">
            <path d="M237.55042,121.423152 C237.55042,188.486471 184.370749,242.846303 118.772563,242.846303 C53.1743773,242.846303 0,188.486471 0,121.423152 C0,54.3659201 53.1743773,0 118.772563,0 C184.370088,0 237.55042,54.3652437 237.55042,121.423152" id="Shape" fill="#D9222A"></path>
            <path d="M278.103985,0 C247.415008,0 219.450851,11.9025859 198.370872,31.4313228 C194.077856,35.4114782 190.069364,39.7095591 186.37782,44.2809205 L210.37451,44.2809205 C213.656471,48.3598358 216.677065,52.6484465 219.429016,57.1420177 L177.323315,57.1420177 C174.800969,61.2723421 172.509552,65.5623057 170.481486,70.0010855 L226.268198,70.0010855 C228.173852,74.1665847 229.855857,78.4538426 231.297008,82.8560947 L165.452675,82.8560947 C164.079016,87.0445928 162.923713,91.3318506 162,95.7151626 L234.747037,95.7151626 C236.491902,104.001516 237.420247,112.602413 237.420247,121.424505 C237.420247,134.9086 235.267784,147.882662 231.29767,159.994944 L165.452014,159.994944 C166.89118,164.401254 168.572523,168.691218 170.477516,172.854012 L226.26886,172.854012 C224.234176,177.293468 221.948053,181.582755 219.42306,185.715109 L177.323315,185.715109 C180.071957,190.199886 183.09983,194.495261 186.37782,198.564706 L210.369217,198.564706 C206.683628,203.144185 202.671828,207.447677 198.372857,211.423774 C219.45416,230.951158 247.415669,242.847656 278.103985,242.847656 C343.702171,242.84698 396.881842,188.486471 396.881842,121.423152 C396.881842,54.3679494 343.702171,4.80637414e-15 278.103985,4.80637414e-15" id="Shape" fill="#EE9F2D"></path>
            <path d="M381.601579,189.208059 C381.601579,187.043461 383.316668,185.284724 385.436709,185.284724 C387.558073,185.284724 389.273162,187.043461 389.273162,189.208059 C389.273162,191.372658 387.558073,193.131394 385.438032,193.131394 C383.318653,193.131394 381.603564,191.372658 381.603564,189.208059 L381.601579,189.208059 Z M385.436709,192.191146 C387.047913,192.191146 388.354742,190.854507 388.354742,189.208059 C388.354742,187.559582 387.047913,186.22903 385.436709,186.22903 C383.824843,186.22903 382.523969,187.559582 382.523969,189.208059 C382.523969,190.854507 383.824843,192.191146 385.438032,192.191146 L385.436709,192.191146 Z M384.920594,190.932973 L384.133188,190.932973 L384.133188,187.486527 L385.555812,187.486527 C385.853571,187.486527 386.156623,187.486527 386.41865,187.658342 C386.691926,187.847744 386.846099,188.179198 386.846099,188.524181 C386.846099,188.90975 386.623111,189.270291 386.261831,189.410314 L386.88183,190.932297 L386.011052,190.932297 L385.494937,189.569276 L384.919271,189.569276 L384.919271,190.932973 L384.920594,190.932973 Z M384.920594,188.97807 L385.355321,188.97807 C385.518096,188.97807 385.688811,188.991599 385.835043,188.910427 C385.965396,188.825196 386.031564,188.666909 386.031564,188.514711 C386.031564,188.382806 385.952162,188.230608 385.839675,188.16567 C385.700721,188.077733 385.48435,188.098026 385.336794,188.098026 L384.919932,188.098026 L384.919932,188.977394 L384.920594,188.97807 Z M91.4610501,134.819817 C90.1079031,134.659501 89.5123861,134.616885 88.5827178,134.616885 C81.2744005,134.616885 77.5742547,137.179229 77.5742547,142.238301 C77.5742547,145.359382 79.3806563,147.344048 82.1974519,147.344048 C87.4499121,147.344048 91.236077,142.230184 91.4610501,134.821169 L91.4610501,134.819817 Z M100.837135,157.139533 L90.1542211,157.139533 L90.3990447,151.947878 C87.1409049,156.051822 82.7929689,158.00199 76.8847783,158.00199 C69.8960551,158.00199 65.104128,152.421384 65.104128,144.317669 C65.104128,132.125568 73.4387197,125.012156 87.7450238,125.012156 C89.207349,125.012156 91.0819043,125.147444 93.0007925,125.397725 C93.4011123,123.745866 93.5056586,123.038989 93.5056586,122.150828 C93.5056586,118.830875 91.2585743,117.592995 85.2345887,117.592995 C78.92674,117.51994 73.7239062,119.128507 71.5873234,119.848236 C71.722969,119.018248 73.3738745,108.581501 73.3738745,108.581501 C79.8008267,106.656361 84.0389229,105.931897 88.8083526,105.931897 C99.8803376,105.931897 105.744857,111.013292 105.73427,120.618698 C105.755444,123.191864 105.339244,126.368412 104.688807,130.542029 C103.569235,137.800198 101.168639,153.349456 100.839782,157.139533 L100.837135,157.139533 Z M59.7087437,157.139533 L46.813815,157.139533 L54.2002112,109.791647 L37.7076979,157.139533 L28.9205133,157.139533 L27.8353489,110.062221 L20.0711302,157.139533 L8,157.139533 L18.082765,95.5472358 L36.6231952,95.5472358 L37.7480607,130.023202 L49.0575908,95.5472358 L69.6803456,95.5472358 L59.7080821,157.139533 L59.7087437,157.139533 Z M294.589924,134.819817 C293.242071,134.659501 292.643245,134.616885 291.716885,134.616885 C284.411876,134.616885 280.711069,137.179229 280.711069,142.238301 C280.711069,145.359382 282.514162,147.344048 285.331619,147.344048 C290.58408,147.344048 294.37223,142.230184 294.589924,134.821169 L294.589924,134.819817 Z M303.974611,157.139533 L293.291697,157.139533 L293.533874,151.947878 C290.273749,156.051822 285.92449,158.00199 280.020269,158.00199 C273.028899,158.00199 268.242266,152.421384 268.242266,144.317669 C268.242266,132.125568 276.571564,125.012156 290.880515,125.012156 C292.34284,125.012156 294.214087,125.147444 296.130328,125.397725 C296.529986,123.745866 296.635194,123.038989 296.635194,122.150828 C296.635194,118.830875 294.390757,117.592995 288.366771,117.592995 C282.060907,117.51994 276.862705,119.128507 274.718182,119.848236 C274.853166,119.018248 276.510027,108.581501 276.510027,108.581501 C282.937641,106.656361 287.172429,105.931897 291.936565,105.931897 C303.013182,105.931897 308.878363,111.013292 308.867114,120.618698 C308.889611,123.191864 308.473411,126.368412 307.821651,130.542029 C306.710019,137.800198 304.301483,153.349456 303.977258,157.139533 L303.974611,157.139533 Z M158.145724,156.378541 C154.615631,157.514955 151.864342,158.00199 148.882126,158.00199 C142.28909,158.00199 138.692167,154.129388 138.692167,146.998389 C138.597546,144.78644 139.639701,138.962317 140.458868,133.647551 C141.202603,128.969989 146.050111,99.4692176 146.050111,99.4692176 L158.866961,99.4692176 L157.371552,107.050724 L165.113273,107.050724 L163.363776,119.089274 L155.594264,119.089274 C154.105472,128.615536 151.985431,140.481594 151.96161,142.054311 C151.96161,144.636271 153.308802,145.763215 156.375053,145.763215 C157.843995,145.763215 158.982094,145.61034 159.851549,145.289709 L158.1444,156.379894 L158.145724,156.378541 Z M197.443231,155.974032 C193.040375,157.349228 188.791692,158.014842 184.288921,158.003343 C169.942254,157.989814 162.462561,150.328488 162.462561,135.658598 C162.462561,118.535948 171.977599,105.931897 184.893702,105.931897 C195.460821,105.931897 202.210014,112.989164 202.210014,124.057703 C202.210014,127.730757 201.746834,131.315873 200.63057,136.376975 L175.106049,136.376975 C174.243211,143.643261 178.791638,146.670317 186.246849,146.670317 C190.834977,146.670317 194.973159,145.705041 199.57452,143.51812 L197.441908,155.975384 L197.443231,155.974032 Z M190.23946,126.278446 C190.312245,125.23538 191.599886,117.337978 184.277673,117.337978 C180.195073,117.337978 177.274392,120.519938 176.086005,126.278446 L190.240783,126.278446 L190.23946,126.278446 Z M108.571578,122.884762 C108.571578,129.220947 111.57563,133.589378 118.390992,136.870097 C123.613676,139.379679 124.421594,140.123759 124.421594,142.396588 C124.421594,145.520374 122.118929,146.928716 117.016009,146.928716 C113.170293,146.928716 109.591897,146.315187 105.464302,144.95352 C105.464302,144.95352 103.768402,155.992972 103.690985,156.520593 C106.622252,157.174707 109.23591,157.780795 117.109969,158.003343 C130.715548,158.003343 136.998914,152.706841 136.998914,141.261526 C136.998914,134.37878 134.368714,130.339774 127.909339,127.304601 C122.503368,124.767962 121.883368,124.201108 121.883368,121.861989 C121.883368,119.153535 124.025906,117.772251 128.194526,117.772251 C130.726135,117.772251 134.18278,118.048237 137.458124,118.525125 L139.294963,106.907319 C135.956098,106.36617 130.894203,105.931897 127.947055,105.931897 C113.522309,105.931897 108.52923,113.634485 108.572901,122.884762 L108.571578,122.884762 Z M260.156468,107.248243 C263.738172,107.248243 267.077699,108.208784 271.678399,110.576314 L273.787191,97.2085651 C271.89874,96.4509556 265.2488,92 259.616532,92 C250.986829,92 243.691745,96.3765476 238.561697,103.600895 C231.078033,101.066962 228.001195,106.188267 224.229587,111.289955 L220.880135,112.08815 C221.13356,110.407881 221.363165,108.739787 221.285748,107.050724 L209.444222,107.050724 C207.82574,122.552631 204.957994,138.254764 202.71488,153.775611 L202.129288,157.140885 L215.029511,157.140885 C217.182635,142.839654 218.363083,133.682049 219.079026,127.484533 L223.937784,124.722641 C224.662991,121.962778 226.935219,121.030648 231.491586,121.142936 C230.896069,124.412833 230.576475,127.851162 230.576475,131.413956 C230.576475,147.800643 239.224706,158.003343 253.106869,158.003343 C256.681295,158.003343 259.750193,157.52172 264.501095,156.205373 L266.770677,142.16254 C262.496188,144.31361 258.989254,145.32556 255.813164,145.32556 C248.316266,145.32556 243.781073,139.669194 243.781073,130.320157 C243.781073,116.757595 250.527619,107.248243 260.155144,107.248243 L260.156468,107.248243 Z" id="Shape" fill="#000000"></path>
            <polyline id="Shape" fill="#FFFFFF" points="63.7080821 153.58418 50.8118299 153.58418 58.202858 106.241705 41.709683 153.58418 32.921175 153.58418 31.8340255 106.51228 24.0704685 153.58418 12 153.58418 22.082765 92 40.6231952 92 41.1446035 130.12602 53.6531078 92 73.6803456 92 63.7067587 153.58418"></polyline>
            <path d="M369.048436,95.0033822 L366.189954,112.799087 C362.66317,108.055911 358.875682,104.622993 353.874662,104.622993 C347.367646,104.622993 341.44556,109.665155 337.569406,117.086345 C332.171375,115.941814 326.588072,113.999763 326.588072,113.999763 L326.585425,114.043732 C327.020814,109.895143 327.194176,107.363916 327.155798,106.504164 L315.311626,106.504164 C313.699098,122.005395 310.832014,137.708204 308.590224,153.228376 L308,156.59365 L320.897576,156.59365 C322.639794,145.028606 323.974413,135.425906 324.955693,127.811254 C329.362519,123.740456 331.567256,120.189162 336.019076,120.425915 C334.048577,125.299644 332.893274,130.914071 332.893274,136.671903 C332.893274,149.194105 339.089959,157.454754 348.464059,157.454754 C353.188494,157.454754 356.814531,155.789366 360.351902,151.928264 L359.747783,156.58418 L371.946619,156.58418 L381.767356,95 L369.049759,95 L369.048436,95.0033822 Z M352.923158,145.020489 C348.534198,145.020489 346.317551,141.699183 346.317551,135.147214 C346.317551,125.302349 350.466319,118.320843 356.316943,118.320843 C360.746267,118.320843 363.145539,121.773377 363.145539,128.134591 C363.145539,138.064687 358.930601,145.020489 352.922496,145.020489 L352.923158,145.020489 Z" id="Shape" fill="#000000"></path>
            <path d="M94.3516286,131.814181 C93.0004666,131.653865 92.4023028,131.61125 91.475943,131.61125 C84.166964,131.61125 80.4694649,134.173593 80.4694649,139.232666 C80.4694649,142.346982 82.2758666,144.337059 85.0880303,144.337059 C90.3451223,144.337059 94.1306256,139.225901 94.3516286,131.81621 L94.3516286,131.814181 Z M103.73433,154.12578 L93.050093,154.12578 L93.2929316,148.942243 C90.0374385,153.03604 85.6835474,154.996354 79.7813119,154.996354 C72.7886186,154.996354 68,149.415749 68,141.312033 C68,129.113168 76.3306216,122.004491 90.6402341,122.004491 C92.1025593,122.004491 93.9764529,122.139778 95.8926943,122.39006 C96.2936758,120.739554 96.3982221,120.032001 96.3982221,119.138427 C96.3982221,115.819151 94.155108,114.587359 88.129799,114.587359 C81.8193035,114.512951 76.6197782,116.122871 74.4792253,116.83313 C74.6148708,116.004495 76.2657764,105.579247 76.2657764,105.579247 C82.6907435,103.64599 86.9334715,102.92085 91.6976077,102.92085 C102.772239,102.92085 108.638744,108.006303 108.628157,117.602915 C108.648007,120.186905 108.227837,123.360747 107.580047,127.529629 C106.463783,134.784416 104.05988,150.342467 103.73433,154.125103 L103.73433,154.12578 Z M276.681739,94.1988707 L274.569639,107.570001 C269.970924,105.205178 266.629412,104.241931 263.051016,104.241931 C253.423491,104.241931 246.674298,113.750606 246.674298,127.313169 C246.674298,136.661528 251.212138,142.316542 258.705727,142.316542 C261.881818,142.316542 265.384781,141.307298 269.657947,139.153522 L267.394982,153.189591 C262.641433,154.515407 259.575844,154.995678 255.996786,154.995678 C242.117931,154.995678 233.466392,144.793654 233.466392,128.406967 C233.466392,106.388942 245.416434,91 262.506449,91 C268.13607,91 274.789319,93.4419377 276.679754,94.1995471 L276.681739,94.1988707 Z M297.485796,131.814857 C296.134634,131.654542 295.539117,131.611926 294.61011,131.611926 C287.303778,131.611926 283.603632,134.17427 283.603632,139.233342 C283.603632,142.347658 285.410034,144.337736 288.224845,144.337736 C293.476643,144.337736 297.264793,139.226578 297.485796,131.816887 L297.485796,131.814857 Z M306.868498,154.126456 L296.182275,154.126456 L296.427099,148.942919 C293.168298,153.036716 288.817715,154.99703 282.915479,154.99703 C275.925433,154.99703 271.134167,149.416425 271.134167,141.312709 C271.134167,129.113844 279.468097,122.005167 293.771755,122.005167 C295.236065,122.005167 297.107974,122.140455 299.026862,122.390737 C299.423873,120.74023 299.531066,120.032677 299.531066,119.139104 C299.531066,115.819827 297.285967,114.588035 291.26132,114.588035 C284.953471,114.513627 279.751299,116.123548 277.610746,116.833806 C277.746392,116.005171 279.400606,105.579924 279.400606,105.579924 C285.825573,103.646667 290.064992,102.921526 294.829128,102.921526 C305.907069,102.921526 311.770926,108.00698 311.757031,117.603592 C311.779528,120.187581 311.363328,123.361424 310.711568,127.530305 C309.598612,134.785092 307.188754,150.343144 306.867174,154.12578 L306.868498,154.126456 Z M161.037626,153.367494 C157.505548,154.503908 154.754259,154.997707 151.774027,154.997707 C145.181654,154.997707 141.584069,151.124429 141.584069,143.994106 C141.492757,141.775392 142.534912,135.958034 143.354078,130.642592 C144.095166,125.958265 148.942675,96.4601997 148.942675,96.4601997 L161.756878,96.4601997 L160.262792,104.044412 L166.84127,104.044412 L165.09045,116.076873 L158.490136,116.076873 C157.001344,125.607871 154.875348,137.465812 154.853512,139.04191 C154.853512,141.632664 156.203351,142.750815 159.266955,142.750815 C160.735897,142.750815 161.871349,142.604028 162.742789,142.28272 L161.035641,153.36817 L161.037626,153.367494 Z M200.335794,152.969072 C195.935585,154.344269 191.680947,155.006501 187.181485,154.998383 C172.834156,154.983502 165.354462,147.322852 165.354462,132.652963 C165.354462,115.525577 174.869501,102.923555 187.785604,102.923555 C198.352723,102.923555 205.101916,109.978794 205.101916,121.052068 C205.101916,124.72715 204.638736,128.312266 203.525781,133.371339 L178.001259,133.371339 C177.137759,140.637625 181.686848,143.66671 189.142059,143.66671 C193.72754,143.66671 197.868369,142.698052 202.466422,140.505044 L200.335794,152.968396 L200.335794,152.969072 Z M193.128715,123.264693 C193.206132,122.224333 194.490464,114.324225 187.164943,114.324225 C183.084989,114.324225 180.164309,117.514978 178.976584,123.264693 L193.128715,123.264693 Z M111.46348,119.879802 C111.46348,126.215312 114.467532,130.57833 121.282894,133.865138 C126.503593,136.373366 127.312835,137.120153 127.312835,139.391628 C127.312835,142.514738 125.008184,143.923756 119.910558,143.923756 C116.062856,143.923756 112.48446,143.309552 108.354219,141.94856 C108.354219,141.94856 106.664274,152.988013 106.587519,153.515633 C109.512169,154.169072 112.128474,154.767042 120.002532,154.99703 C133.610758,154.99703 139.892801,149.701881 139.892801,138.258596 C139.892801,131.372467 137.263924,127.334138 130.801241,124.298965 C125.397255,121.756915 124.773285,121.198855 124.773285,118.856353 C124.773285,116.150605 126.919132,114.758498 131.085766,114.758498 C133.613405,114.758498 137.070712,115.042601 140.351349,115.519489 L142.184218,103.898301 C138.849323,103.357152 133.787428,102.924232 130.839619,102.924232 C116.412226,102.924232 111.422455,110.620732 111.46348,119.879802 L111.46348,119.879802 Z M375.114088,154.127809 L362.915252,154.127809 L363.52268,149.465128 C359.985308,153.332319 356.359933,154.998383 351.634175,154.998383 C342.261398,154.998383 336.066698,146.737058 336.066698,134.214179 C336.066698,117.553535 345.674372,103.50935 357.047424,103.50935 C362.049767,103.50935 365.834609,105.598187 369.358085,110.338658 L372.219875,92.5429529 L384.937472,92.5429529 L375.116734,154.127132 L375.114088,154.127809 Z M356.093935,142.553971 C362.098732,142.553971 366.316978,135.598169 366.316978,125.674162 C366.316978,119.311595 363.915059,115.859061 359.485074,115.859061 C353.637097,115.859061 349.482373,122.837861 349.482373,132.685432 C349.482373,139.238077 351.705637,142.552619 356.095259,142.552619 L356.093935,142.553971 Z M318.481741,104.044412 C316.867229,119.546995 313.999483,135.248452 311.757693,150.761858 L311.168792,154.127132 L324.065044,154.127132 C328.676993,123.501446 329.795242,117.52039 337.026142,118.269206 C338.178798,112.002017 340.323321,106.511377 341.922615,103.740691 C336.521276,102.590748 333.505974,105.711152 329.557035,111.638094 C329.868027,109.074397 330.439723,106.585109 330.326575,104.043735 L318.482403,104.043735 L318.481741,104.044412 Z M212.334801,104.043735 C210.716318,119.546319 207.848573,135.247775 205.607444,150.761182 L205.020528,154.126456 L217.923397,154.126456 C222.530053,123.50077 223.644331,117.519714 230.872584,118.268529 C232.030534,112.00134 234.175719,106.510701 235.769058,103.740015 C230.373673,102.590072 227.355064,105.710476 223.410094,111.637417 C223.721087,109.073721 224.286828,106.584433 224.178973,104.043059 L212.334801,104.043059 L212.334801,104.043735 Z M380.778116,150.205151 C380.778116,148.031758 382.495852,146.281816 384.613246,146.281816 C386.733287,146.281816 388.447714,148.031758 388.447714,150.205151 C388.447714,152.367043 386.733948,154.12578 384.613246,154.12578 C382.495852,154.12578 380.778116,152.367043 380.778116,150.205151 Z M384.613246,153.184179 C386.225774,153.184179 387.527309,151.848216 387.527309,150.205151 C387.527309,148.559379 386.225774,147.223416 384.613246,147.223416 C383.002703,147.223416 381.695213,148.559379 381.695213,150.205151 C381.695213,151.848893 383.002703,153.184179 384.613246,153.184179 Z M384.094485,151.919242 L383.307079,151.919242 L383.307079,148.480236 L384.733011,148.480236 C385.028123,148.480236 385.333822,148.485648 385.590556,148.652051 C385.866479,148.843483 386.02396,149.170878 386.02396,149.514508 C386.02396,149.90346 385.80031,150.267383 385.436383,150.405376 L386.059691,151.918566 L385.186266,151.918566 L384.670151,150.558927 L384.094485,150.558927 L384.094485,151.918566 L384.094485,151.919242 Z M384.094485,149.971103 L384.525904,149.971103 C384.688678,149.971103 384.865348,149.982603 385.008934,149.90346 C385.137963,149.818905 385.204131,149.658589 385.204131,149.506391 C385.204131,149.379221 385.127376,149.227023 385.014227,149.151262 C384.879905,149.072119 384.656917,149.094441 384.510023,149.094441 L384.093161,149.094441 L384.093161,149.971103 L384.094485,149.971103 Z" id="Shape" fill="#FFFFFF"></path>
        </g>
    </g>
</svg>