<?xml version="1.0" encoding="UTF-8"?>
<svg width="374px" height="115px" viewBox="0 0 374 115" version="1.1" xmlns="http://www.w3.org/2000/svg" xmlns:xlink="http://www.w3.org/1999/xlink">
    <!-- Generator: Sketch 47.1 (45422) - http://www.bohemiancoding.com/sketch -->
    <title>visa</title>
    <desc>Created with Sketch.</desc>
    <defs></defs>
    <g id="Page-1" stroke="none" stroke-width="1" fill="none" fill-rule="evenodd">
        <g id="visa" fill-rule="nonzero">
            <path d="M132.212759,113.100646 L151.100423,2.26414174 L181.311627,2.26414174 L162.410941,113.100646 L132.212759,113.100646 L132.212759,113.100646 Z M271.554576,4.65510713 C265.570085,2.40964923 256.190797,0 244.47886,0 C214.627179,0 193.599366,15.0319988 193.42102,36.5767314 C193.2523,52.5032899 208.432071,61.3866067 219.891493,66.6882879 C231.650988,72.1201899 235.604036,75.585193 235.548551,80.4367636 C235.473815,87.8650055 226.157373,91.2598027 217.474483,91.2598027 C205.380943,91.2598027 198.957665,89.5805218 189.035413,85.4417681 L185.143513,83.6809576 L180.902847,108.492531 C187.959677,111.586689 201.007792,114.267537 214.555275,114.40625 C246.312141,114.40625 266.926645,99.5452366 267.162175,76.538635 C267.276543,63.9310061 259.227771,54.3354386 241.798578,46.4248138 C231.239378,41.2980813 224.771372,37.8755414 224.840446,32.6848309 C224.840446,28.0778488 230.313678,23.1504105 242.140549,23.1504105 C252.020338,22.9975428 259.176815,25.1524123 264.751959,27.3967379 L267.458285,28.6762979 L271.554576,4.6534086 L271.554576,4.65510713 Z M349.294638,2.26414174 L325.951162,2.26414174 C318.718817,2.26414174 313.307297,4.2378347 310.131044,11.4548927 L265.264916,113.028175 L296.987812,113.028175 C296.987812,113.028175 302.175692,99.3702879 303.34881,96.3723808 C306.815512,96.3723808 337.632525,96.4199397 342.03908,96.4199397 C342.941567,100.299384 345.713569,113.027609 345.713569,113.027609 L373.745557,113.027609 L349.293506,2.26244321 L349.294638,2.26414174 Z M312.257039,73.8317429 C314.755578,67.4452666 324.293962,42.84884 324.293962,42.84884 C324.11505,43.1432521 326.773817,36.4306578 328.299664,32.269257 L330.341298,41.8263244 C330.341298,41.8263244 336.125928,68.2820761 337.334716,73.8306105 L312.257039,73.8306105 L312.257039,73.8317429 Z M106.568339,2.26414174 L76.9912537,77.8465039 L73.8393465,62.4878209 C68.3332753,44.7812021 51.1781128,25.5979936 32,15.9933673 L59.0440096,112.925131 L91.0080972,112.88833 L138.569228,2.26584027 L106.568905,2.26584027 L106.568339,2.26414174 Z" id="Shape" fill="#FFFFFF"></path>
            <path d="M49.1005662,2 L0.386698877,2 L0,4.30603884 C37.899887,13.4803706 62.9769978,35.651295 73.3867278,62.2904881 L62.7946889,11.3572069 C60.9659372,4.33944328 55.6608589,2.24515463 49.1000001,2.00056618" id="Shape" fill="#F2AE14"></path>
        </g>
    </g>
</svg>